# xmcd CD database file
#
# Track frame offsets:
#	150
#	20178
#	41464
#	63662
#	83926
#	111486
#	139447
#	161586
#	186964
#
# Disc length: 2825 seconds
#
# Revision: 0
# Processed by: cddbd v1.5.2PL0 Copyright (c) Steve Scherf et al.
# Submitted via: CDex 1.51
#
DISCID=860b0709
DTITLE=Depeche Mode - Violator
DYEAR=1990
DGENRE=New Age
TTITLE0=Depeche Mode - World In My Eyes
TTITLE1=Depeche Mode - Sweetest Perfection
TTITLE2=Depeche Mode - Personal Jesus
TTITLE3=Depeche Mode - Halo
TTITLE4=Depeche Mode - Waiting For The Night
TTITLE5=Depeche Mode - Enjoy The Silence
TTITLE6=Depeche Mode - Policy Of Truth
TTITLE7=Depeche Mode - Blue Dress
TTITLE8=Depeche Mode - Clean
EXTD=YEAR: 1990
EXTT0=
EXTT1=
EXTT2=
EXTT3=
EXTT4=
EXTT5=
EXTT6=
EXTT7=
EXTT8=
PLAYORDER=
